<svg width="25" height="24" viewBox="0 0 25 24" fill="none" xmlns="http://www.w3.org/2000/svg">
<path fill-rule="evenodd" clip-rule="evenodd" d="M18.4804 4.29289C18.8709 3.90237 19.5041 3.90237 19.8946 4.29289C20.2851 4.68342 20.2851 5.31658 19.8946 5.70711L13.6017 12L19.8946 18.2929C20.2851 18.6834 20.2851 19.3166 19.8946 19.7071C19.5041 20.0976 18.8709 20.0976 18.4804 19.7071L12.1875 13.4142L5.89461 19.7071C5.50408 20.0976 4.87092 20.0976 4.48039 19.7071C4.08987 19.3166 4.08987 18.6834 4.48039 18.2929L10.7733 12L4.48039 5.70711C4.08987 5.31658 4.08987 4.68342 4.48039 4.29289C4.87092 3.90237 5.50408 3.90237 5.89461 4.29289L12.1875 10.5858L18.4804 4.29289Z" fill="#282827"/>
</svg>
