<svg xmlns="http://www.w3.org/2000/svg" width="48" height="48" fill="none"><path d="M19 30h10v6.333a.667.667 0 01-.667.667c-.736 0-1.333.597-1.333 1.333V39h-6a2 2 0 00-2-2v-7zM21 41h6a3 3 0 11-6 0z" fill="#FF6153"></path><mask id="Electrical_svg__a" style="mask-type:alpha" maskUnits="userSpaceOnUse" x="19" y="30" width="10" height="10"><path d="M19.937 30.937h8.126v5.314a2.812 2.812 0 01-2.813 2.812h-2.5a2.812 2.812 0 01-2.813-2.813v-5.313z" fill="#EC665F" stroke="#EC665F" stroke-width="1.875"></path></mask><g mask="url(#Electrical_svg__a)"><path d="M29 30H18v7.75A7.397 7.397 0 0124.435 34H29v-4z" fill="#A03027"></path></g><circle cx="24" cy="18" r="14" fill="#FF6153"></circle><path d="M18.226 19.184L25.5 9l-.733 7.335a.15.15 0 00.149.165h4.672a.2.2 0 01.158.324L21.75 27l1.464-7.32a.15.15 0 00-.147-.18h-4.678a.2.2 0 01-.163-.316z" fill="#A03027"></path></svg>