<svg xmlns="http://www.w3.org/2000/svg" width="48" height="48" fill="none"><path d="M28 28h4v15h-4V28z" fill="#FF6153"></path><path fill="#A03027" d="M14 35h4v7h-4z"></path><path d="M14.59 9.639c.249-.994 1.653-1.016 1.933-.03l5.314 18.755C22.922 32.194 20.045 36 16.064 36h-.38c-3.903 0-6.767-3.668-5.82-7.455L14.59 9.639z" fill="#A03027"></path><path d="M36 39.5a2.5 2.5 0 00-5 0v.5h5v-.5zM16 40.5a2.5 2.5 0 00-5 0v.5h5v-.5zM24 43.5a2.5 2.5 0 015 0v.5h-5v-.5z" fill="#FF6153"></path><path d="M4 42a5 5 0 0110 0v2H5.91A1.91 1.91 0 014 42.09V42z" fill="#FF6153"></path><path fill-rule="evenodd" clip-rule="evenodd" d="M28 29v7a7.952 7.952 0 014-4.244V29h-4z" fill="#A03027"></path><path d="M34.342 6.518A4.998 4.998 0 0030 4a4.998 4.998 0 00-4.342 2.518 4.998 4.998 0 00-4.85 1.29 4.998 4.998 0 00-1.29 4.85A4.998 4.998 0 0017 17a4.998 4.998 0 002.518 4.342 4.998 4.998 0 001.29 4.85 4.998 4.998 0 004.85 1.29A4.998 4.998 0 0030 30a4.998 4.998 0 004.342-2.518 4.998 4.998 0 004.85-1.29 4.998 4.998 0 001.29-4.85A4.998 4.998 0 0043 17a4.998 4.998 0 00-2.518-4.342 4.998 4.998 0 00-1.29-4.85 4.999 4.999 0 00-4.85-1.29zM13 40h31v1a3 3 0 01-3 3H13v-4z" fill="#FF6153"></path></svg>