<svg width="25" height="24" viewBox="0 0 25 24" fill="none" xmlns="http://www.w3.org/2000/svg">
<path fill-rule="evenodd" clip-rule="evenodd" d="M4.02099 10C4.021 6.68629 6.70729 4 10.021 4C13.3347 4 16.021 6.68629 16.021 10C16.021 13.3137 13.3347 16 10.021 16C6.70729 16 4.02099 13.3137 4.02099 10ZM2.021 10C2.021 5.58172 5.60272 2 10.021 2C14.4393 2 18.021 5.58172 18.021 10C18.021 11.8488 17.3939 13.551 16.3408 14.9057L21.31 19.8749C21.7005 20.2654 21.7005 20.8986 21.31 21.2891C20.9195 21.6797 20.2863 21.6797 19.8958 21.2891L14.9266 16.3199C13.5719 17.3729 11.8697 18 10.021 18C5.60272 18 2.021 14.4183 2.021 10Z" fill="#282827"/>
</svg>
